<svg
  xmlns="http://www.w3.org/2000/svg"
  viewBox="0 0 20 20"
  height="20"
  width="20"
  fill="none"
>
  <g id="ic:round-log-in">
    <path
      fill="#292421"
      d="M1.66602 7.50065L1.66602 15.0007C1.66602 15.9173 2.41602 16.6673 3.33268 16.6673L16.666 16.6673C17.5827 16.6673
      18.3327 15.9173 18.3327 15.0006L18.3327 7.50065C18.3327 6.58398 17.5827 5.83398 16.666 5.83398L15.8327 5.83398C15.6117
      5.83398 15.3997 5.92178 15.2434 6.07806C15.0871 6.23434 14.9993 6.4463 14.9993 6.66732C14.9993 6.88833 15.0871 7.10029
      15.2434 7.25657C15.3997 7.41285 15.6117 7.50065 15.8327 7.50065L16.666 7.50065L16.666 15.0006L3.33268 15.0007L3.33268
      7.50065L4.16602 7.50065C4.38703 7.50065 4.59899 7.41285 4.75527 7.25657C4.91155 7.10029 4.99935 6.88833 4.99935
      6.66732C4.99935 6.4463 4.91155 6.23434 4.75527 6.07806C4.59899 5.92178 4.38703 5.83398 4.16602 5.83398L3.33268
      5.83398C2.41602 5.83398 1.66602 6.58398 1.66602 7.50065Z"
    />
    <path
      fill="#292421"
      d="M6.44905 6.90846C6.12405 6.58346 6.12405 6.05846 6.44905 5.73346L9.43905 2.74346C9.59532 2.58724 9.80725 2.49947
      10.0282 2.49947C10.2492 2.49947 10.4611 2.58724 10.6174 2.74346L13.6074 5.73346C13.7506 5.89187 13.8274 6.09924 13.822
      6.31269C13.8166 6.52614 13.7294 6.72936 13.5784 6.88035C13.4274 7.03133 13.2242 7.11853 13.0108 7.12391C12.7973 7.1293
      12.59 7.05247 12.4315 6.9093L10.8615 5.34596L10.8615 12.571C10.8615 12.792 10.7738 13.0039 10.6175 13.1602C10.4612
      13.3165 10.2492 13.4043 10.0282 13.4043C9.8072 13.4043 9.59524 13.3165 9.43896 13.1602C9.28268 13.0039 9.19488 12.792
      9.19488 12.571L9.19488 5.34596L7.62488 6.9093C7.46871 7.06485 7.25722 7.15212 7.03679 7.15197C6.81637 7.15181 6.605
      7.06424 6.44905 6.90846Z"
    />
  </g>
</svg>
